<svg xmlns="http://www.w3.org/2000/svg" xmlns:xlink="http://www.w3.org/1999/xlink" width="1080" zoomAndPan="magnify" viewBox="0 0 810 809.999993" height="1080" preserveAspectRatio="xMidYMid meet" version="1.0"><defs><g/><clipPath id="6d6c3da46f"><path d="M 210 61 L 319 61 L 319 148 L 210 148 Z M 210 61 " clip-rule="nonzero"/></clipPath><clipPath id="2a14a30c84"><path d="M 34.945312 232.058594 L 258.746094 8.261719 L 487.847656 237.363281 L 264.046875 461.160156 Z M 34.945312 232.058594 " clip-rule="nonzero"/></clipPath><clipPath id="d56c954b3f"><path d="M 34.945312 232.058594 L 258.746094 8.261719 L 487.847656 237.363281 L 264.046875 461.160156 Z M 34.945312 232.058594 " clip-rule="nonzero"/></clipPath><clipPath id="3d8997147f"><path d="M 207 138 L 321 138 L 321 444 L 207 444 Z M 207 138 " clip-rule="nonzero"/></clipPath><clipPath id="f4afd9ce69"><path d="M 34.945312 232.058594 L 258.746094 8.261719 L 487.847656 237.363281 L 264.046875 461.160156 Z M 34.945312 232.058594 " clip-rule="nonzero"/></clipPath><clipPath id="fbba8c4d15"><path d="M 34.945312 232.058594 L 258.746094 8.261719 L 487.847656 237.363281 L 264.046875 461.160156 Z M 34.945312 232.058594 " clip-rule="nonzero"/></clipPath><clipPath id="53e18f3971"><path d="M 264 177 L 320 177 L 320 186 L 264 186 Z M 264 177 " clip-rule="nonzero"/></clipPath><clipPath id="74d8f89951"><path d="M 34.945312 232.058594 L 258.746094 8.261719 L 487.847656 237.363281 L 264.046875 461.160156 Z M 34.945312 232.058594 " clip-rule="nonzero"/></clipPath><clipPath id="b4d6d7fcee"><path d="M 34.945312 232.058594 L 258.746094 8.261719 L 487.847656 237.363281 L 264.046875 461.160156 Z M 34.945312 232.058594 " clip-rule="nonzero"/></clipPath><clipPath id="a57ee78f27"><path d="M 264 246 L 313 246 L 313 254 L 264 254 Z M 264 246 " clip-rule="nonzero"/></clipPath><clipPath id="e76d3386ad"><path d="M 34.945312 232.058594 L 258.746094 8.261719 L 487.847656 237.363281 L 264.046875 461.160156 Z M 34.945312 232.058594 " clip-rule="nonzero"/></clipPath><clipPath id="72d4f77014"><path d="M 34.945312 232.058594 L 258.746094 8.261719 L 487.847656 237.363281 L 264.046875 461.160156 Z M 34.945312 232.058594 " clip-rule="nonzero"/></clipPath><clipPath id="fd8272c40e"><path d="M 264 321 L 299 321 L 299 327 L 264 327 Z M 264 321 " clip-rule="nonzero"/></clipPath><clipPath id="a524a8a875"><path d="M 34.945312 232.058594 L 258.746094 8.261719 L 487.847656 237.363281 L 264.046875 461.160156 Z M 34.945312 232.058594 " clip-rule="nonzero"/></clipPath><clipPath id="c18fb8eb65"><path d="M 34.945312 232.058594 L 258.746094 8.261719 L 487.847656 237.363281 L 264.046875 461.160156 Z M 34.945312 232.058594 " clip-rule="nonzero"/></clipPath><clipPath id="cc5b9819c1"><path d="M 210 214 L 280 214 L 280 225 L 210 225 Z M 210 214 " clip-rule="nonzero"/></clipPath><clipPath id="a5871931d6"><path d="M 34.945312 232.058594 L 258.746094 8.261719 L 487.847656 237.363281 L 264.046875 461.160156 Z M 34.945312 232.058594 " clip-rule="nonzero"/></clipPath><clipPath id="d50cf0ccbb"><path d="M 34.945312 232.058594 L 258.746094 8.261719 L 487.847656 237.363281 L 264.046875 461.160156 Z M 34.945312 232.058594 " clip-rule="nonzero"/></clipPath><clipPath id="593b8090fc"><path d="M 222 284 L 280 284 L 280 293 L 222 293 Z M 222 284 " clip-rule="nonzero"/></clipPath><clipPath id="e18b8f8efa"><path d="M 34.945312 232.058594 L 258.746094 8.261719 L 487.847656 237.363281 L 264.046875 461.160156 Z M 34.945312 232.058594 " clip-rule="nonzero"/></clipPath><clipPath id="4e89083a54"><path d="M 34.945312 232.058594 L 258.746094 8.261719 L 487.847656 237.363281 L 264.046875 461.160156 Z M 34.945312 232.058594 " clip-rule="nonzero"/></clipPath><clipPath id="4bb9f342b2"><path d="M 235 359 L 280 359 L 280 366 L 235 366 Z M 235 359 " clip-rule="nonzero"/></clipPath><clipPath id="f5f9ce2134"><path d="M 34.945312 232.058594 L 258.746094 8.261719 L 487.847656 237.363281 L 264.046875 461.160156 Z M 34.945312 232.058594 " clip-rule="nonzero"/></clipPath><clipPath id="fca1414ab4"><path d="M 34.945312 232.058594 L 258.746094 8.261719 L 487.847656 237.363281 L 264.046875 461.160156 Z M 34.945312 232.058594 " clip-rule="nonzero"/></clipPath></defs><g fill="#bebf6f" fill-opacity="1"><g transform="translate(62.525434, 518.804487)"><g><path d="M 289.449219 0 L 410.917969 -351.355469 L 252.304688 -351.355469 L 214.492188 -206.128906 L 207.464844 -165.304688 L 204.121094 -165.304688 L 196.757812 -206.128906 L 158.613281 -351.355469 L 0.667969 -351.355469 L 121.804688 0 Z M 289.449219 0 "/></g></g></g><g fill="#eaad85" fill-opacity="1"><g transform="translate(319.523985, 700.5677)"><g><path d="M 179.023438 0 L 179.023438 -169.652344 C 179.023438 -213.824219 200.105469 -232.898438 225.871094 -232.898438 C 248.289062 -232.898438 266.027344 -219.511719 266.027344 -180.363281 L 266.027344 0 L 418.613281 0 L 418.613281 -186.71875 C 418.613281 -297.480469 374.109375 -363.402344 279.074219 -363.402344 C 231.894531 -363.402344 193.746094 -346.335938 170.324219 -320.570312 L 163.632812 -351.355469 L 26.769531 -351.355469 L 26.769531 0 Z M 179.023438 0 "/></g></g></g><g clip-path="url(#6d6c3da46f)"><g clip-path="url(#2a14a30c84)"><g clip-path="url(#d56c954b3f)"><path fill="#bebf6f" d="M 294.464844 145.082031 C 287.390625 140.667969 279.1875 138.144531 270.40625 138.148438 L 258.046875 138.148438 C 247.746094 138.152344 238.296875 141.628906 230.445312 147.503906 L 229.589844 146.570312 C 229.589844 146.570312 181.09375 85.9375 237.613281 90.707031 C 237.613281 90.707031 245.113281 38.152344 275.847656 73.03125 C 275.847656 73.03125 281.652344 81.027344 286.652344 91.574219 C 286.652344 91.574219 316.570312 66.226562 318.214844 95.804688 C 319.324219 116.601562 303.785156 135.625 294.464844 145.082031 Z M 294.464844 145.082031 " fill-opacity="1" fill-rule="nonzero"/></g></g></g><g clip-path="url(#3d8997147f)"><g clip-path="url(#f4afd9ce69)"><g clip-path="url(#fbba8c4d15)"><path fill="#eaad85" d="M 319.367188 205.273438 L 312.109375 246.703125 L 310.898438 253.6875 L 298.953125 321.65625 L 298.066406 326.726562 L 280.1875 428.671875 C 276.714844 448.523438 251.484375 448.527344 248.015625 428.6875 L 236.957031 365.445312 L 235.820312 359.046875 L 224.175781 292.425781 L 222.726562 284.121094 L 212.273438 224.441406 L 210.492188 214.359375 L 208.929688 205.339844 C 204.839844 181.9375 214.207031 159.613281 230.359375 147.523438 C 238.203125 141.644531 247.679688 138.179688 257.960938 138.171875 L 270.320312 138.167969 C 279.125 138.164062 287.308594 140.695312 294.378906 145.101562 C 305.578125 152.054688 314.046875 163.691406 317.941406 177.417969 C 318.660156 180.023438 319.269531 182.71875 319.632812 185.476562 C 320.640625 191.816406 320.554688 198.492188 319.367188 205.273438 Z M 319.367188 205.273438 " fill-opacity="1" fill-rule="nonzero"/></g></g></g><g clip-path="url(#53e18f3971)"><g clip-path="url(#74d8f89951)"><g clip-path="url(#b4d6d7fcee)"><path fill="#e4825b" d="M 319.722656 185.441406 L 264.183594 181.363281 L 318.011719 177.386719 C 318.761719 180.019531 319.335938 182.691406 319.722656 185.441406 Z M 319.722656 185.441406 " fill-opacity="1" fill-rule="nonzero"/></g></g></g><g clip-path="url(#a57ee78f27)"><g clip-path="url(#e76d3386ad)"><g clip-path="url(#72d4f77014)"><path fill="#e4825b" d="M 312.117188 246.710938 L 310.898438 253.644531 L 264.164062 250.230469 Z M 312.117188 246.710938 " fill-opacity="1" fill-rule="nonzero"/></g></g></g><g clip-path="url(#fd8272c40e)"><g clip-path="url(#a524a8a875)"><g clip-path="url(#c18fb8eb65)"><path fill="#e4825b" d="M 298.976562 321.609375 L 298.097656 326.679688 L 264.160156 324.175781 Z M 298.976562 321.609375 " fill-opacity="1" fill-rule="nonzero"/></g></g></g><g clip-path="url(#cc5b9819c1)"><g clip-path="url(#a5871931d6)"><g clip-path="url(#d50cf0ccbb)"><path fill="#e4825b" d="M 279.964844 219.414062 L 212.324219 224.414062 L 210.558594 214.320312 Z M 279.964844 219.414062 " fill-opacity="1" fill-rule="nonzero"/></g></g></g><g clip-path="url(#593b8090fc)"><g clip-path="url(#e18b8f8efa)"><g clip-path="url(#4e89083a54)"><path fill="#e4825b" d="M 279.941406 288.273438 L 224.222656 292.390625 L 222.746094 284.101562 Z M 279.941406 288.273438 " fill-opacity="1" fill-rule="nonzero"/></g></g></g><g clip-path="url(#4bb9f342b2)"><g clip-path="url(#f5f9ce2134)"><g clip-path="url(#fca1414ab4)"><path fill="#e4825b" d="M 279.941406 362.242188 L 236.976562 365.398438 L 235.867188 359.011719 Z M 279.941406 362.242188 " fill-opacity="1" fill-rule="nonzero"/></g></g></g></svg>